<svg width="56" height="46" viewBox="0 0 56 46" fill="none" xmlns="http://www.w3.org/2000/svg">
<path d="M46 14.4L35.45 8.65C34.7 8.25 33.8 8.25 33.05 8.65L22.5 14.4C21.625 14.875 21.625 16.125 22.5 16.6L33.05 22.35C33.8 22.75 34.7 22.75 35.45 22.35L46 16.6C46.85 16.125 46.85 14.875 46 14.4ZM50.5 0.5H5.5C2.75 0.5 0.5 2.75 0.5 5.5V10.5C0.5 11.875 1.625 13 3 13C4.375 13 5.5 11.875 5.5 10.5V8C5.5 6.625 6.625 5.5 8 5.5H48C49.375 5.5 50.5 6.625 50.5 8V38C50.5 39.375 49.375 40.5 48 40.5H35.5C34.125 40.5 33 41.625 33 43C33 44.375 34.125 45.5 35.5 45.5H50.5C53.25 45.5 55.5 43.25 55.5 40.5V5.5C55.5 2.75 53.25 0.5 50.5 0.5ZM33.05 24.85L25.5 20.725V24.25C25.5 25.175 26 26 26.8 26.45L33.05 29.85C33.8 30.25 34.7 30.25 35.45 29.85L41.7 26.45C42.5 26 43 25.15 43 24.25V20.725L35.45 24.85C34.7 25.25 33.8 25.25 33.05 24.85ZM0.5 38V45.5H8C8 41.35 4.65 38 0.5 38ZM3.35 28.225C1.85 27.975 0.5 29.2 0.5 30.725C0.5 31.95 1.4 32.975 2.625 33.175C7.825 34.075 11.925 38.175 12.825 43.375C13.025 44.6 14.05 45.5 15.275 45.5C16.8 45.5 18 44.15 17.775 42.65C16.575 35.25 10.725 29.425 3.35 28.225ZM3.25 18.125C1.775 18 0.5 19.15 0.5 20.625C0.5 21.9 1.45 22.975 2.7 23.1C13.375 24.125 21.875 32.625 22.9 43.3C23.025 44.55 24.1 45.475 25.375 45.475C26.875 45.475 28.025 44.175 27.875 42.7C26.55 29.725 16.225 19.425 3.25 18.125Z" fill="#CF373D"/>
</svg>
