<svg width="119" height="93" viewBox="0 0 119 93" fill="none" xmlns="http://www.w3.org/2000/svg">
<path d="M6.1 83.6L3.44525 84.9972L3.71691 85.5134L4.16217 85.8902L6.1 83.6ZM1.6 71.9L-1.31043 72.6276H-1.31043L1.6 71.9ZM5.5 35.6L2.81672 34.2583L2.80245 34.2869L2.78879 34.3157L5.5 35.6ZM21.7 15.2L19.7794 12.8953L19.7634 12.9087L19.7476 12.9222L21.7 15.2ZM47.5 0.799995L50.2637 -0.366928L49.1582 -2.98543L46.4838 -2.02267L47.5 0.799995ZM53.2 14.3L54.283 17.0977L57.1664 15.9815L55.9638 13.1331L53.2 14.3ZM37 23.3L38.8343 25.6738L38.8417 25.6682L38.8489 25.6625L37 23.3ZM25.9 35.3L23.3872 33.6612L23.3617 33.7003L23.3374 33.7402L25.9 35.3ZM19.6 51.5L16.6714 52.1508L22.5263 52.1608L19.6 51.5ZM16 35.3L17.5015 32.7028L11.5902 29.2853L13.0714 35.9508L16 35.3ZM35.2 46.4L36.7569 43.8356L36.7294 43.8189L36.7015 43.8028L35.2 46.4ZM46.6 57.5L43.9167 58.8416L43.9307 58.8696L43.9452 58.8972L46.6 57.5ZM42.7 85.7L44.7737 87.8679L44.7978 87.8449L44.8213 87.8213L42.7 85.7ZM71.2 83.6L68.5452 84.9972L68.8169 85.5134L69.2622 85.8902L71.2 83.6ZM66.7 71.9L63.7896 72.6276L66.7 71.9ZM70.6 35.6L67.9167 34.2583L67.9025 34.2869L67.8888 34.3157L70.6 35.6ZM86.8 15.2L84.8795 12.8953L84.8634 12.9087L84.8476 12.9222L86.8 15.2ZM112.6 0.799995L115.364 -0.366928L114.258 -2.98543L111.584 -2.02267L112.6 0.799995ZM118.3 14.3L119.383 17.0977L122.266 15.9815L121.064 13.1331L118.3 14.3ZM102.1 23.3L103.934 25.6738L103.942 25.6682L103.949 25.6625L102.1 23.3ZM91 35.3L88.4872 33.6612L88.4617 33.7003L88.4374 33.7402L91 35.3ZM84.7 51.5L81.7714 52.1508L87.6263 52.1608L84.7 51.5ZM81.1 35.3L82.6015 32.7028L76.6902 29.2853L78.1714 35.9508L81.1 35.3ZM100.3 46.4L101.857 43.8356L101.829 43.8189L101.802 43.8028L100.3 46.4ZM111.7 57.5L109.017 58.8416L109.031 58.8696L109.045 58.8972L111.7 57.5ZM107.8 85.7L109.874 87.8679L109.898 87.8449L109.921 87.8213L107.8 85.7ZM26.2 89.3C22.2131 89.3 18.9404 88.4869 16.2708 86.9853L13.3292 92.2147C17.0596 94.3131 21.3869 95.3 26.2 95.3V89.3ZM16.2708 86.9853C13.2236 85.2713 10.482 83.378 8.03783 81.3098L4.16217 85.8902C6.91798 88.222 9.97636 90.3287 13.3292 92.2147L16.2708 86.9853ZM8.75476 82.2027C6.8618 78.6061 5.44991 74.9303 4.51043 71.1724L-1.31043 72.6276C-0.249905 76.8697 1.3382 80.9939 3.44525 84.9972L8.75476 82.2027ZM4.51043 71.1724C3.57376 67.4257 3.1 63.4711 3.1 59.3H-2.9C-2.9 63.9289 -2.37376 68.3743 -1.31043 72.6276L4.51043 71.1724ZM3.1 59.3C3.1 51.5557 4.79635 44.0934 8.21121 36.8842L2.78879 34.3157C-0.996354 42.3066 -2.9 50.6442 -2.9 59.3H3.1ZM8.18328 36.9416C11.7897 29.7287 16.9299 23.2399 23.6524 17.4778L19.7476 12.9222C12.4701 19.1601 6.81026 26.2713 2.81672 34.2583L8.18328 36.9416ZM23.6206 17.5046C30.5181 11.7567 38.8019 7.1198 48.5162 3.62265L46.4838 -2.02267C36.1981 1.68019 27.2819 6.64332 19.7794 12.8953L23.6206 17.5046ZM44.7363 1.96691L50.4363 15.4669L55.9638 13.1331L50.2637 -0.366928L44.7363 1.96691ZM52.117 11.5023C45.679 13.9944 40.0131 17.1324 35.1511 20.9375L38.8489 25.6625C43.1869 22.2676 48.321 19.4056 54.283 17.0977L52.117 11.5023ZM35.1657 20.9261C30.5033 24.5288 26.5729 28.7764 23.3872 33.6612L28.4128 36.9388C31.2271 32.6236 34.6967 28.8711 38.8343 25.6738L35.1657 20.9261ZM23.3374 33.7402C20.3408 38.6631 18.1328 44.3775 16.6737 50.8392L22.5263 52.1608C23.8672 46.2224 25.8592 41.1369 28.4626 36.8598L23.3374 33.7402ZM22.5286 50.8492L18.9286 34.6492L13.0714 35.9508L16.6714 52.1508L22.5286 50.8492ZM14.4985 37.8972L33.6985 48.9972L36.7015 43.8028L17.5015 32.7028L14.4985 37.8972ZM33.6431 48.9644C38.9714 52.1994 42.2611 55.5303 43.9167 58.8416L49.2833 56.1584C46.9389 51.4697 42.6286 47.4006 36.7569 43.8356L33.6431 48.9644ZM43.9452 58.8972C45.7356 62.2989 46.6 65.7223 46.6 69.2H52.6C52.6 64.6777 51.4644 60.3011 49.2548 56.1028L43.9452 58.8972ZM46.6 69.2C46.6 74.7897 44.6265 79.5309 40.5787 83.5787L44.8213 87.8213C49.9735 82.6691 52.6 76.4102 52.6 69.2H46.6ZM40.6263 83.5321C36.588 87.3948 31.8321 89.3 26.2 89.3V95.3C33.3679 95.3 39.612 92.8052 44.7737 87.8679L40.6263 83.5321ZM91.3 89.3C87.3131 89.3 84.0404 88.4869 81.3708 86.9853L78.4292 92.2147C82.1596 94.3131 86.4869 95.3 91.3 95.3V89.3ZM81.3708 86.9853C78.3236 85.2713 75.582 83.378 73.1378 81.3098L69.2622 85.8902C72.018 88.222 75.0764 90.3287 78.4292 92.2147L81.3708 86.9853ZM73.8548 82.2028C71.9618 78.6061 70.5499 74.9303 69.6104 71.1724L63.7896 72.6276C64.8501 76.8697 66.4382 80.9939 68.5452 84.9972L73.8548 82.2028ZM69.6104 71.1724C68.6738 67.4257 68.2 63.4711 68.2 59.3H62.2C62.2 63.9289 62.7262 68.3743 63.7896 72.6276L69.6104 71.1724ZM68.2 59.3C68.2 51.5557 69.8964 44.0934 73.3112 36.8842L67.8888 34.3157C64.1037 42.3066 62.2 50.6442 62.2 59.3H68.2ZM73.2833 36.9416C76.8897 29.7287 82.0299 23.2399 88.7524 17.4778L84.8476 12.9222C77.5701 19.1601 71.9103 26.2713 67.9167 34.2583L73.2833 36.9416ZM88.7206 17.5047C95.6181 11.7567 103.902 7.1198 113.616 3.62265L111.584 -2.02267C101.298 1.68019 92.3819 6.64332 84.8795 12.8953L88.7206 17.5047ZM109.836 1.96691L115.536 15.4669L121.064 13.1331L115.364 -0.366928L109.836 1.96691ZM117.217 11.5023C110.779 13.9944 105.113 17.1324 100.251 20.9375L103.949 25.6625C108.287 22.2676 113.421 19.4056 119.383 17.0977L117.217 11.5023ZM100.266 20.9261C95.6033 24.5288 91.6729 28.7764 88.4872 33.6612L93.5128 36.9388C96.3271 32.6236 99.7967 28.8711 103.934 25.6738L100.266 20.9261ZM88.4374 33.7402C85.4408 38.6631 83.2328 44.3775 81.7737 50.8392L87.6263 52.1608C88.9672 46.2224 90.9592 41.1369 93.5626 36.8598L88.4374 33.7402ZM87.6286 50.8492L84.0286 34.6492L78.1714 35.9508L81.7714 52.1508L87.6286 50.8492ZM79.5985 37.8972L98.7985 48.9972L101.802 43.8028L82.6015 32.7028L79.5985 37.8972ZM98.7431 48.9644C104.071 52.1994 107.361 55.5303 109.017 58.8416L114.383 56.1584C112.039 51.4697 107.729 47.4006 101.857 43.8356L98.7431 48.9644ZM109.045 58.8972C110.836 62.2989 111.7 65.7223 111.7 69.2H117.7C117.7 64.6777 116.564 60.3011 114.355 56.1028L109.045 58.8972ZM111.7 69.2C111.7 74.7897 109.726 79.5309 105.679 83.5787L109.921 87.8213C115.074 82.6691 117.7 76.4102 117.7 69.2H111.7ZM105.726 83.5321C101.688 87.3948 96.9321 89.3 91.3 89.3V95.3C98.4679 95.3 104.712 92.8052 109.874 87.8679L105.726 83.5321Z" fill="#124874"/>
</svg>
